<svg xmlns="http://www.w3.org/2000/svg" viewBox="0 0 64 64">
  <defs>
    <linearGradient id="g" x1="0" y1="0" x2="1" y2="1">
      <stop offset="0%" stop-color="#7c5cff"/>
      <stop offset="50%" stop-color="#22d3ee"/>
      <stop offset="100%" stop-color="#ff5e9c"/>
    </linearGradient>
  </defs>
  <rect width="64" height="64" rx="14" fill="url(#g)"/>
  <path fill="#fff" d="M19 22h26c4.4 0 8 3.6 8 8v6c0 3.9-3.1 7-7 7-2 0-3.9-.9-5.2-2.4l-2.6-3.1c-.4-.5-1-.7-1.6-.7H27c-.6 0-1.2.2-1.6.7l-2.6 3.1A7 7 0 0 1 17 43c-3.9 0-7-3.1-7-7v-6c0-4.4 3.6-8 8-8h1zm5 8h-3v3h-3v3h3v3h3v-3h3v-3h-3v-3zm14 1.5a2.2 2.2 0 1 0 0 4.4 2.2 2.2 0 0 0 0-4.4zm5 4a2.2 2.2 0 1 0 0 4.4 2.2 2.2 0 0 0 0-4.4z"/>
</svg>
